<svg width="144" height="32" viewBox="0 0 144 32" fill="none" xmlns="http://www.w3.org/2000/svg">
<path d="M38.52 11.84C38.076 11.84 37.704 11.702 37.404 11.426C37.116 11.138 36.972 10.784 36.972 10.364C36.972 9.944 37.116 9.596 37.404 9.32C37.704 9.032 38.076 8.888 38.52 8.888C38.964 8.888 39.33 9.032 39.618 9.32C39.918 9.596 40.068 9.944 40.068 10.364C40.068 10.784 39.918 11.138 39.618 11.426C39.33 11.702 38.964 11.84 38.52 11.84ZM39.762 13.028V23H37.242V13.028H39.762ZM55.9498 10.436V23H53.4298V14.828L50.0638 23H48.1558L44.7718 14.828V23H42.2518V10.436H45.1138L49.1098 19.778L53.1058 10.436H55.9498ZM106.052 16.556C106.76 16.688 107.342 17.042 107.798 17.618C108.254 18.194 108.482 18.854 108.482 19.598C108.482 20.27 108.314 20.864 107.978 21.38C107.654 21.884 107.18 22.28 106.556 22.568C105.932 22.856 105.194 23 104.342 23H98.9236V10.436H104.108C104.96 10.436 105.692 10.574 106.304 10.85C106.928 11.126 107.396 11.51 107.708 12.002C108.032 12.494 108.194 13.052 108.194 13.676C108.194 14.408 107.996 15.02 107.6 15.512C107.216 16.004 106.7 16.352 106.052 16.556ZM101.444 15.62H103.748C104.348 15.62 104.81 15.488 105.134 15.224C105.458 14.948 105.62 14.558 105.62 14.054C105.62 13.55 105.458 13.16 105.134 12.884C104.81 12.608 104.348 12.47 103.748 12.47H101.444V15.62ZM103.982 20.948C104.594 20.948 105.068 20.804 105.404 20.516C105.752 20.228 105.926 19.82 105.926 19.292C105.926 18.752 105.746 18.332 105.386 18.032C105.026 17.72 104.54 17.564 103.928 17.564H101.444V20.948H103.982ZM109.842 17.978C109.842 16.97 110.04 16.076 110.436 15.296C110.844 14.516 111.39 13.916 112.074 13.496C112.77 13.076 113.544 12.866 114.396 12.866C115.14 12.866 115.788 13.016 116.34 13.316C116.904 13.616 117.354 13.994 117.69 14.45V13.028H120.228V23H117.69V21.542C117.366 22.01 116.916 22.4 116.34 22.712C115.776 23.012 115.122 23.162 114.378 23.162C113.538 23.162 112.77 22.946 112.074 22.514C111.39 22.082 110.844 21.476 110.436 20.696C110.04 19.904 109.842 18.998 109.842 17.978ZM117.69 18.014C117.69 17.402 117.57 16.88 117.33 16.448C117.09 16.004 116.766 15.668 116.358 15.44C115.95 15.2 115.512 15.08 115.044 15.08C114.576 15.08 114.144 15.194 113.748 15.422C113.352 15.65 113.028 15.986 112.776 16.43C112.536 16.862 112.416 17.378 112.416 17.978C112.416 18.578 112.536 19.106 112.776 19.562C113.028 20.006 113.352 20.348 113.748 20.588C114.156 20.828 114.588 20.948 115.044 20.948C115.512 20.948 115.95 20.834 116.358 20.606C116.766 20.366 117.09 20.03 117.33 19.598C117.57 19.154 117.69 18.626 117.69 18.014ZM128.215 12.884C129.403 12.884 130.363 13.262 131.095 14.018C131.827 14.762 132.193 15.806 132.193 17.15V23H129.673V17.492C129.673 16.7 129.475 16.094 129.079 15.674C128.683 15.242 128.143 15.026 127.459 15.026C126.763 15.026 126.211 15.242 125.803 15.674C125.407 16.094 125.209 16.7 125.209 17.492V23H122.689V13.028H125.209V14.27C125.545 13.838 125.971 13.502 126.487 13.262C127.015 13.01 127.591 12.884 128.215 12.884ZM140.494 23L137.11 18.752V23H134.59V9.68H137.11V17.258L140.458 13.028H143.734L139.342 18.032L143.77 23H140.494Z" fill="white"/>
<path d="M62.7792 23.126C61.9032 23.126 61.1112 22.976 60.4032 22.676C59.7072 22.376 59.1552 21.944 58.7472 21.38C58.3392 20.816 58.1292 20.15 58.1172 19.382H60.8172C60.8532 19.898 61.0332 20.306 61.3572 20.606C61.6932 20.906 62.1492 21.056 62.7252 21.056C63.3132 21.056 63.7752 20.918 64.1112 20.642C64.4472 20.354 64.6152 19.982 64.6152 19.526C64.6152 19.154 64.5012 18.848 64.2732 18.608C64.0452 18.368 63.7572 18.182 63.4092 18.05C63.0732 17.906 62.6052 17.75 62.0052 17.582C61.1892 17.342 60.5232 17.108 60.0072 16.88C59.5032 16.64 59.0652 16.286 58.6932 15.818C58.3332 15.338 58.1532 14.702 58.1532 13.91C58.1532 13.166 58.3392 12.518 58.7112 11.966C59.0832 11.414 59.6052 10.994 60.2772 10.706C60.9492 10.406 61.7172 10.256 62.5812 10.256C63.8772 10.256 64.9272 10.574 65.7312 11.21C66.5472 11.834 66.9972 12.71 67.0812 13.838H64.3092C64.2852 13.406 64.0992 13.052 63.7512 12.776C63.4152 12.488 62.9652 12.344 62.4012 12.344C61.9092 12.344 61.5132 12.47 61.2132 12.722C60.9252 12.974 60.7812 13.34 60.7812 13.82C60.7812 14.156 60.8892 14.438 61.1052 14.666C61.3332 14.882 61.6092 15.062 61.9332 15.206C62.2692 15.338 62.7372 15.494 63.3372 15.674C64.1532 15.914 64.8192 16.154 65.3352 16.394C65.8512 16.634 66.2952 16.994 66.6672 17.474C67.0392 17.954 67.2252 18.584 67.2252 19.364C67.2252 20.036 67.0512 20.66 66.7032 21.236C66.3552 21.812 65.8452 22.274 65.1732 22.622C64.5012 22.958 63.7032 23.126 62.7792 23.126ZM68.762 17.978C68.762 16.97 68.96 16.076 69.356 15.296C69.764 14.516 70.31 13.916 70.994 13.496C71.69 13.076 72.464 12.866 73.316 12.866C74.06 12.866 74.708 13.016 75.26 13.316C75.824 13.616 76.274 13.994 76.61 14.45V13.028H79.148V23H76.61V21.542C76.286 22.01 75.836 22.4 75.26 22.712C74.696 23.012 74.042 23.162 73.298 23.162C72.458 23.162 71.69 22.946 70.994 22.514C70.31 22.082 69.764 21.476 69.356 20.696C68.96 19.904 68.762 18.998 68.762 17.978ZM76.61 18.014C76.61 17.402 76.49 16.88 76.25 16.448C76.01 16.004 75.686 15.668 75.278 15.44C74.87 15.2 74.432 15.08 73.964 15.08C73.496 15.08 73.064 15.194 72.668 15.422C72.272 15.65 71.948 15.986 71.696 16.43C71.456 16.862 71.336 17.378 71.336 17.978C71.336 18.578 71.456 19.106 71.696 19.562C71.948 20.006 72.272 20.348 72.668 20.588C73.076 20.828 73.508 20.948 73.964 20.948C74.432 20.948 74.87 20.834 75.278 20.606C75.686 20.366 76.01 20.03 76.25 19.598C76.49 19.154 76.61 18.626 76.61 18.014ZM86.1812 15.098H84.4352V23H81.8792V15.098H80.7452V13.028H81.8792V12.524C81.8792 11.3 82.2272 10.4 82.9232 9.824C83.6192 9.248 84.6692 8.978 86.0732 9.014V11.138C85.4612 11.126 85.0352 11.228 84.7952 11.444C84.5552 11.66 84.4352 12.05 84.4352 12.614V13.028H86.1812V15.098ZM97.0843 17.798C97.0843 18.158 97.0603 18.482 97.0123 18.77H89.7223C89.7823 19.49 90.0343 20.054 90.4783 20.462C90.9223 20.87 91.4683 21.074 92.1163 21.074C93.0523 21.074 93.7183 20.672 94.1143 19.868H96.8323C96.5443 20.828 95.9923 21.62 95.1763 22.244C94.3603 22.856 93.3583 23.162 92.1703 23.162C91.2103 23.162 90.3463 22.952 89.5783 22.532C88.8223 22.1 88.2283 21.494 87.7963 20.714C87.3763 19.934 87.1663 19.034 87.1663 18.014C87.1663 16.982 87.3763 16.076 87.7963 15.296C88.2163 14.516 88.8043 13.916 89.5603 13.496C90.3163 13.076 91.1863 12.866 92.1703 12.866C93.1183 12.866 93.9643 13.07 94.7083 13.478C95.4643 13.886 96.0463 14.468 96.4543 15.224C96.8743 15.968 97.0843 16.826 97.0843 17.798ZM94.4743 17.078C94.4623 16.43 94.2283 15.914 93.7723 15.53C93.3163 15.134 92.7583 14.936 92.0983 14.936C91.4743 14.936 90.9463 15.128 90.5143 15.512C90.0943 15.884 89.8363 16.406 89.7403 17.078H94.4743Z" fill="#00FF75"/>
<path d="M16 0C12.8355 -3.77363e-08 9.74206 0.938383 7.11088 2.69649C4.47969 4.45459 2.42893 6.95345 1.21793 9.87706C0.00692588 12.8007 -0.309928 16.0177 0.307435 19.1214C0.924798 22.2251 2.44865 25.0761 4.68629 27.3137C6.92393 29.5513 9.77485 31.0752 12.8786 31.6926C15.9822 32.3099 19.1993 31.9931 22.1229 30.7821C25.0465 29.5711 27.5454 27.5203 29.3035 24.8891C31.0616 22.2579 32 19.1645 32 16L24 16C24 17.5823 23.5308 19.129 22.6518 20.4446C21.7727 21.7602 20.5233 22.7855 19.0615 23.391C17.5997 23.9965 15.9911 24.155 14.4393 23.8463C12.8874 23.5376 11.462 22.7757 10.3431 21.6569C9.22432 20.538 8.4624 19.1126 8.15372 17.5607C7.84504 16.0089 8.00346 14.4003 8.60896 12.9385C9.21447 11.4767 10.2398 10.2273 11.5554 9.34824C12.871 8.46919 14.4177 8 16 8L16 0Z" fill="white"/>
<path d="M16 0C13.8989 -2.5056e-08 11.8183 0.413852 9.87706 1.21793C7.93586 2.022 6.17203 3.20055 4.68629 4.68629C3.20055 6.17203 2.022 7.93586 1.21793 9.87707C0.413852 11.8183 -3.17265e-07 13.8989 0 16L8 16C8 14.9494 8.20693 13.9091 8.60896 12.9385C9.011 11.9679 9.60028 11.086 10.3431 10.3431C11.086 9.60028 11.9679 9.011 12.9385 8.60896C13.9091 8.20693 14.9494 8 16 8L16 0Z" fill="#00FF75"/>
</svg>
